<?xml version="1.0" encoding="UTF-8"?>
<svg id="Livello_2" data-name="Livello 2" xmlns="http://www.w3.org/2000/svg" viewBox="0 0 118.86 108.91">
  <defs>
    <style>
      .cls-1 {
        fill: #fff6e9;
      }

      .cls-2 {
        fill: #121212;
      }
    </style>
  </defs>
  <g id="Livello_1-2" data-name="Livello 1">
    <g>
      <path class="cls-1" d="M41.39,108.91h-.02c-4.53,0-8.73-2.2-11.33-5.79-.85-.95-1.79-2.18-2.6-3.86-.59-1.22-.95-2.35-1.17-3.22-.2-.37-.39-.74-.58-1.11-.25-.5-.48-1-.71-1.51-.05-.12-.11-.24-.16-.36v-.02c-.33-.5-.82-1.25-1.31-2.22-.49-.96-.81-1.79-1.02-2.33l-.05-.13c-.26-.54-.48-1.05-.66-1.51-.46-.62-.96-1.37-1.43-2.26-.12-.22-.24-.43-.36-.63-.27-.47-.53-.93-.79-1.41-.4-.75-.7-1.4-.91-1.88-.05-.1-.09-.21-.14-.31-.23-.42-.42-.83-.59-1.21-.6-.71-1.25-1.59-1.83-2.65-.32-.58-.59-1.15-.81-1.69-.54-.65-1.09-1.42-1.59-2.3-.21-.36-.41-.73-.61-1.09-.17-.32-.35-.63-.53-.95-.27-.47-.52-.95-.77-1.42-.1-.19-.2-.38-.3-.56-.06-.1-.13-.2-.2-.3-.38-.56-.75-1.13-1.09-1.71-.8-1.37-1.27-2.64-1.56-3.57-.65-.7-1.31-1.54-1.9-2.52-.64-1.06-1.09-2.08-1.4-2.98-.77-.75-1.59-1.71-2.34-2.9-1.64-2.63-2.12-5.18-2.29-6.81-1.29-5.63,1.01-11.71,6.17-14.97,6.54-4.13,15.18-2.18,19.31,4.35.62.98,1.08,1.95,1.42,2.87.34.44.69.92,1.01,1.45.27.43.53.87.79,1.31.16.27.32.54.48.8.32.51.58,1.02.81,1.51.67.72,1.34,1.57,1.95,2.58,1,1.68,1.51,3.21,1.8,4.25.22.51.4.99.54,1.41.22.34.46.72.71,1.16.3.52.58,1.04.86,1.57.11.2.21.41.32.6.05.09.1.17.15.26.92.89,1.97,2.1,2.87,3.7.45.81.8,1.6,1.07,2.33.44.58.88,1.25,1.3,2,.66,1.21,1.06,2.29,1.3,2.95.04.09.09.17.13.26.05-.04.09-.08.14-.12.41-.64.9-1.29,1.47-1.93,1.05-1.17,2.11-2.01,2.88-2.55.02-.02.04-.05.07-.07.21-.23.43-.45.63-.68.19-.21.38-.41.57-.6.54-1.05,1.26-2.18,2.25-3.28.85-.95,1.68-1.65,2.21-2.09l1.14-1.27c.5-.56.99-1.03,1.41-1.41.41-.64.96-1.41,1.66-2.2.63-.71,1.28-1.31,1.9-1.81.36-.53.77-1.09,1.26-1.65.28-.31.54-.62.81-.92.25-.28.5-.55.74-.83.45-.51.91-.99,1.37-1.47.1-.1.2-.2.29-.3.45-.52.95-1.11,1.45-1.69.16-.19.3-.37.44-.54.16-.2.32-.4.48-.61.38-.63.98-1.6,1.85-2.63.9-1.08,1.87-1.92,2.8-2.59.16-.21.33-.43.5-.65.34-.42.68-.79.98-1.11.41-.77.96-1.68,1.71-2.63.53-.67,1.02-1.2,1.37-1.59.31-.5.78-1.24,1.4-2.05.43-.55.84-1.02,1.2-1.41.35-.67.83-1.47,1.45-2.3.6-.8,1.22-1.47,1.82-2.04.27-.49.59-1,.97-1.52.39-.55.79-1.03,1.14-1.43.33-.68.77-1.48,1.34-2.32.52-.75,1.07-1.4,1.59-1.95.27-.54.59-1.12.99-1.71.98-1.49,2.08-2.59,2.88-3.31.14-.18.27-.34.38-.47.25-.4.5-.79.74-1.19l.04-.08c.24-.51.61-1.29,1.13-2.18,3.93-6.66,12.51-8.87,19.17-4.94,6.57,3.88,8.81,12.29,5.09,18.91l-.07.15c-.27.56-.67,1.42-1.26,2.4-.4.65-.8,1.3-1.21,1.94l-.16.25c-.69,1.1-1.38,1.94-1.79,2.44l-.02.02c-.45.66-.92,1.23-1.37,1.73-.31.65-.71,1.37-1.2,2.1-.65.96-1.34,1.76-1.99,2.41-.29.53-.63,1.09-1.04,1.67-.39.55-.78,1.03-1.13,1.44-.38.82-.92,1.78-1.65,2.78-.73,1-1.52,1.81-2.24,2.46-.28.45-.6.93-.97,1.42-.64.84-1.26,1.51-1.74,1.99-.32.51-.77,1.2-1.35,1.94-.32.41-.63.77-.9,1.08-.43.85-1.05,1.92-1.94,3.02-.36.44-.71.84-1.03,1.17-.44.83-1.05,1.83-1.89,2.85-1.12,1.35-2.33,2.34-3.46,3.08-.08.09-.15.19-.23.28-.14.17-.28.34-.41.52-.37.47-.75.94-1.14,1.4-.52.61-1.06,1.24-1.6,1.86-.55.64-1.06,1.16-1.44,1.54-.1.1-.2.2-.29.3-.15.17-.31.36-.49.55-.5.97-1.24,2.19-2.31,3.4-.81.92-1.65,1.65-2.42,2.22-.29.39-.62.81-1,1.23-.85.96-1.65,1.65-2.18,2.09l-1.23,1.37c-.09.1-.18.2-.28.3-.55,1.17-1.34,2.46-2.46,3.7-1.01,1.12-2.03,1.93-2.76,2.46-.05.05-.09.1-.14.15-.21.22-.42.45-.62.67-.29.32-.58.61-.86.88-.5.92-1.16,1.91-2.02,2.88-.47.53-.96,1.01-1.44,1.42-.39.65-.85,1.32-1.41,1.98-.92,1.1-1.89,1.95-2.78,2.59-.06.09-.13.18-.2.27-.07.1-.13.2-.2.3-.32.5-.65.99-.99,1.47-.58.81-1.17,1.48-1.67,1.99-.17.31-.37.66-.59,1.03-.06.11-.14.28-.23.45-.2.38-.39.76-.6,1.14l-.31.57c-.13.24-.25.45-.38.72-2.33,4.86-7.24,7.95-12.62,7.95ZM28.75,100.93s0,0,0,.01c0,0,0,0,0-.01ZM22.57,88.6s.03.05.04.08c-.01-.03-.03-.05-.04-.08ZM75.56,74.16l-.02.02s.01-.02.02-.02ZM42.85,67.15s.02.03.03.05c0-.02-.02-.03-.03-.05ZM46.91,64.46s0,0-.01.01c0,0,0,0,.01-.01ZM9.04,64.22s0,0,0,0c0,0,0,0,0,0ZM5.64,58.1s0,0,0,.01c0,0,0,0,0-.01ZM2.16,52.02s0,.01.01.02c0,0,0-.01-.01-.02ZM33.14,49.97s0,0,0,0c0,0,0,0,0,0ZM116.93,21.1h0s0,0,0,0ZM89.33,12.44s-.04.07-.07.1c.02-.03.04-.07.07-.1Z"/>
      <path class="cls-2" d="M41.4,99.68h0c-1.54,0-2.95-.89-3.61-2.28-.3-.64-.5-1.32-.68-1.92-.08-.26-.2-.66-.25-.79-.03-.06-.19-.29-.31-.45-.29-.41-.64-.92-.95-1.55-.44-.91-.58-1.77-.66-2.33,0-.06-.02-.11-.02-.17-.07-.11-.17-.25-.25-.36-.28-.4-.63-.9-.94-1.51-.21-.41-.39-.83-.58-1.25-.13-.31-.27-.61-.42-.91-.29-.56-.48-1.1-.64-1.53-.05-.13-.1-.27-.15-.39,0,0-.02-.02-.03-.02-.48-.42-1.22-1.06-1.75-2.09-.21-.41-.43-.81-.64-1.21l-.47-.89c-.42-.8-.58-1.57-.66-2.18-.55-.41-1.23-1.02-1.73-1.94-.47-.88-.61-1.74-.65-2.42-.51-.4-1.11-.97-1.56-1.79-.24-.43-.44-.87-.65-1.32-.12-.27-.25-.55-.39-.81-.6-1.08-.71-2.14-.77-2.78,0,0,0,0,0,0-.1-.17-.21-.33-.31-.5-.17-.27-.35-.54-.51-.82-.02-.02-.04-.03-.07-.05-.49-.38-1.3-1.01-1.89-2.03-.34-.6-.57-1.16-.75-1.61-.08-.2-.19-.48-.24-.57-.43-.74-.65-1.44-.81-1.96-.04-.12-.07-.23-.11-.34-.09-.14-.25-.34-.39-.54-.28-.36-.63-.82-.95-1.36-.04-.04-.15-.15-.25-.25-.36-.38-.85-.9-1.27-1.6-.48-.79-.68-1.59-.79-2.19-.55-.38-1.25-.93-1.79-1.8-.26-.42-.52-.83-.77-1.24l-.49-.78c-.26-.41-.49-.84-.72-1.27-.15-.27-.29-.55-.45-.81-1.18-1.87-.62-4.34,1.25-5.52,1.87-1.18,4.34-.62,5.52,1.25.27.43.51.87.75,1.31.14.27.28.54.44.79l.47.75c.18.28.35.56.53.84.58.37,1.53.98,2.22,2.1.6.99.77,1.98.87,2.61.02.02.04.05.07.07.36.39.86.91,1.29,1.63.09.15.25.37.43.6.29.37.64.83.96,1.38.44.75.67,1.47.83,1.99.04.12.07.24.12.36.33.58.55,1.13.73,1.58.03.09.07.19.11.28.49.38,1.31,1.02,1.9,2.05.16.29.34.56.52.84.26.4.51.81.75,1.22.61,1.09.72,2.16.78,2.8,0,.02,0,.04,0,.06.16.32.32.65.47.98.05.12.11.23.16.35.57.4,1.46,1.05,2.08,2.18.48.89.62,1.76.67,2.45.52.41,1.13.99,1.58,1.84.56,1.04.66,2.07.73,2.68v.08s.29.53.29.53c.17.32.34.65.51.97.03.02.05.04.08.07.49.43,1.23,1.07,1.76,2.11.3.58.5,1.13.66,1.57.1.26.2.53.27.67.22.43.42.88.61,1.32.13.29.25.59.4.88.05.09.21.33.34.51.17.25.38.54.58.87.21-.5.51-1.15.98-1.82.55-.77,1.18-1.28,1.64-1.65.09-.07.17-.14.26-.21.07-.11.18-.31.27-.46.26-.46.58-1.04,1.06-1.63.17-.21.31-.43.46-.66.28-.42.6-.9,1.01-1.39.72-.86,1.55-1.33,2.1-1.65.05-.03.1-.06.16-.09.36-.39.72-.72,1.02-.99.11-.1.22-.2.33-.3,0-.02.02-.05.03-.07.23-.61.57-1.54,1.35-2.41.51-.57,1.03-.97,1.44-1.29.15-.12.35-.27.42-.34.22-.24.43-.5.65-.77.29-.35.58-.7.89-1.04.66-.73,1.39-1.17,1.88-1.47.02-.01.04-.03.07-.04.02-.03.03-.06.05-.09.24-.49.61-1.22,1.24-1.92.21-.23.4-.48.59-.72.3-.38.6-.76.92-1.12.54-.6,1.12-1.02,1.53-1.33.11-.08.22-.15.32-.24.08-.12.15-.24.22-.37.26-.43.61-1.02,1.13-1.61.06-.07.21-.3.31-.47.27-.42.6-.95,1.08-1.48.46-.51.92-.91,1.29-1.22.17-.14.39-.33.46-.41.51-.58,1.05-1,1.44-1.3.13-.1.27-.2.38-.31.16-.18.32-.41.48-.64.27-.37.57-.79.95-1.23.61-.7,1.29-1.16,1.74-1.46.08-.05.16-.1.24-.16.23-.27.46-.54.69-.82.25-.3.5-.6.75-.89.08-.11.16-.26.24-.41.25-.43.58-1.01,1.07-1.59.5-.59,1.04-1.03,1.43-1.34.07-.05.14-.11.2-.16,0-.03.02-.05.03-.08.21-.55.54-1.39,1.21-2.2.21-.25.4-.52.59-.78.27-.37.55-.75.84-1.1.69-.84,1.48-1.32,2.01-1.64.04-.02.08-.04.11-.07.14-.19.28-.38.42-.58.21-.3.43-.6.66-.89.02-.06.04-.12.07-.18.2-.55.5-1.39,1.14-2.21.47-.6.99-1.05,1.36-1.38.12-.11.25-.21.36-.33.06-.08.2-.33.34-.56.23-.4.52-.9.91-1.41.08-.1.22-.36.35-.58.23-.41.51-.91.9-1.43.57-.77,1.24-1.27,1.68-1.61.05-.04.11-.08.16-.12.05-.1.1-.21.15-.32.21-.44.5-1.04.94-1.65.47-.65.99-1.13,1.36-1.47.11-.1.23-.2.32-.31.16-.23.34-.53.53-.82.23-.37.46-.73.71-1.09.2-.29.38-.58.56-.88.23-.37.46-.75.7-1.11.42-.62.86-1.07,1.21-1.44.12-.12.25-.24.35-.38.02-.05.06-.2.12-.34.18-.45.42-1.07.81-1.71.05-.11.08-.22.12-.34.17-.51.41-1.21.87-1.93.25-.39.51-.77.79-1.15.18-.26.37-.51.53-.78.18-.29.33-.59.49-.9.21-.39.41-.77.63-1.15,1.12-1.9,3.58-2.53,5.48-1.41,1.9,1.12,2.53,3.58,1.41,5.48-.16.27-.3.54-.45.82-.23.44-.47.89-.73,1.32-.27.44-.57.87-.87,1.29-.16.22-.31.44-.46.66-.04.11-.08.22-.12.33-.18.53-.42,1.25-.91,2-.04.08-.09.23-.14.37-.19.49-.45,1.17-.91,1.86-.43.65-.91,1.15-1.25,1.51-.12.12-.25.24-.35.38-.17.25-.33.52-.49.79-.26.42-.52.85-.8,1.25-.18.26-.35.54-.52.81-.26.42-.53.83-.81,1.23-.48.68-1.01,1.17-1.4,1.53-.11.1-.23.2-.32.31-.04.07-.1.23-.17.38-.22.46-.52,1.08-.98,1.71-.58.79-1.26,1.3-1.71,1.65-.06.05-.12.09-.19.14-.08.12-.18.3-.27.46-.24.42-.54.95-.95,1.49-.09.12-.23.36-.36.59-.24.42-.54.93-.95,1.46-.48.62-1.01,1.09-1.39,1.42-.07.06-.15.12-.22.19-.01.04-.02.07-.04.11-.2.56-.51,1.41-1.17,2.24-.2.25-.38.51-.57.77-.29.4-.57.8-.88,1.18-.7.86-1.5,1.34-2.03,1.66-.04.02-.08.05-.12.07-.14.18-.27.36-.4.54-.24.33-.48.65-.73.96-.02.06-.05.12-.07.18-.22.56-.54,1.41-1.23,2.22-.51.61-1.05,1.05-1.45,1.37-.12.1-.26.2-.37.31-.06.09-.14.24-.22.39-.25.43-.59,1.03-1.09,1.61-.23.27-.46.54-.68.81-.29.35-.58.69-.87,1.04-.62.71-1.3,1.17-1.76,1.48-.08.05-.16.1-.24.16-.14.18-.28.37-.41.55-.27.38-.58.81-.98,1.26-.51.59-1.06,1.01-1.46,1.32-.13.1-.27.2-.38.31-.44.5-.91.89-1.29,1.21-.17.14-.39.33-.46.41-.06.07-.21.3-.32.47-.27.42-.61.95-1.09,1.49-.07.1-.15.24-.23.38-.26.44-.62,1.03-1.14,1.62-.54.61-1.12,1.03-1.54,1.34-.12.09-.25.17-.36.27-.16.18-.35.43-.54.67-.27.34-.55.69-.83,1.02-.05.08-.09.17-.13.26-.24.49-.61,1.23-1.25,1.93-.66.73-1.39,1.18-1.88,1.47-.07.04-.14.08-.2.12-.18.21-.36.43-.54.64-.29.35-.58.7-.89,1.04-.51.56-1.02.96-1.43,1.28-.06.05-.14.11-.2.16,0,0,0,0,0,0-.22.6-.56,1.51-1.32,2.38-.41.46-.82.83-1.15,1.13-.23.21-.44.4-.56.54-.71.82-1.51,1.28-2.05,1.58l-.1.06c-.1.14-.21.31-.33.48-.28.42-.56.83-.88,1.22-.06.08-.2.33-.31.52-.23.42-.52.94-.93,1.47-.52.69-1.1,1.16-1.53,1.5-.07.06-.14.11-.21.17-.04.09-.09.21-.14.33-.19.45-.46,1.06-.87,1.68-.36.55-.75.98-1.06,1.33-.14.16-.33.37-.38.46-.24.4-.46.83-.69,1.25-.1.19-.2.38-.3.56-.05.17-.08.36-.12.54-.14.66-.31,1.47-.68,2.26-.67,1.39-2.07,2.27-3.61,2.27ZM45.72,94.77h0s0,0,0,0ZM49.52,76.76s0,0,0,0c0,0,0,0,0,0ZM65.02,71.16s0,0,0,0c0,0,0,0,0,0ZM31.44,67.81s0,0,0,0c0,0,0,0,0,0ZM25.75,57.15s0,0,0,0c0,0,0,0,0,0ZM14.94,53.38h0,0ZM97.5,17.81s0,0,0,0c0,0,0,0,0,0Z"/>
    </g>
  </g>
</svg>