<?xml version="1.0" encoding="UTF-8"?>
<svg id="Livello_2" data-name="Livello 2" xmlns="http://www.w3.org/2000/svg" viewBox="0 0 169.64 103.31">
  <defs>
    <style>
      .cls-1 {
        fill: #fff6e9;
      }

      .cls-2 {
        fill: #121212;
      }
    </style>
  </defs>
  <g id="Livello_1-2" data-name="Livello 1">
    <g>
      <path class="cls-1" d="M169.64,83.73c-.03-1.41-.24-2.63-.46-3.56,0-.29,0-.62,0-.97.08-.82.18-2.13.03-3.72-.12-1.34-.4-2.48-.64-3.31-.01-.23-.02-.48-.04-.75.06-.91.1-2.31-.15-3.95l-.03-.27c-.05-.61-.14-1.53-.34-2.61-.16-.87-.35-1.61-.49-2.16-.04-.17-.09-.34-.12-.51-.24-1.13-.58-2.13-.97-3.02-.07-.72-.2-1.48-.41-2.29l-.14-.56c-.18-.7-.36-1.4-.56-2.1-.44-1.53-1.01-2.72-1.37-3.45-.34-.94-.7-1.69-.95-2.18-.09-.28-.19-.56-.29-.84-.14-.99-.41-2.4-1.03-3.98l-.24-.62c-.15-.38-.3-.76-.45-1.14-.2-.83-.54-2.11-1.2-3.55-.79-1.72-1.74-2.99-2.39-3.78-.45-.74-.88-1.32-1.18-1.72-.51-.86-.99-1.53-1.31-1.96-.05-.09-.1-.18-.15-.27-.06-.12-.13-.23-.19-.35-.36-1.14-.98-2.73-2.09-4.37-.56-.83-1.15-1.53-1.73-2.12-.44-.86-1.02-1.8-1.78-2.74-1.17-1.45-2.42-2.47-3.42-3.16-.63-1.11-1.54-2.4-2.84-3.63-1.31-1.24-2.55-2.04-3.31-2.5-.36-.28-.71-.53-1.03-.75-.78-.92-1.86-2-3.31-2.98l-.44-.3c-.61-.42-1.45-1.01-2.45-1.59-1.22-.7-2.4-1.17-3.46-1.48-.85-.56-1.87-1.13-3.07-1.58-1.61-.62-2.98-.89-3.8-1.04l-.12-.02c-1.19-.32-2.24-.51-3.01-.65l-.56-.1c-.75-.14-1.65-.31-2.68-.44-.99-.26-2.71-.67-4.81-.63-1.49.01-2.86.15-4,.28-1.49.17-2.78.54-3.82.93-1.22.09-2.71.34-4.31.92-2.04.75-3.62,1.81-4.79,2.82-.2.09-.4.19-.61.29-.37-.11-.71-.19-1.03-.26-.88-.45-2.02-.95-3.39-1.31-1.37-.36-2.59-.59-3.6-.76-1.41-.24-2.66-.27-3.59-.24-.88-.18-2.08-.36-3.46-.37h-.47c-.73-.02-1.74-.03-2.88.04-1.12.07-2.12.18-3,.28h-.18c-.66.04-1.77.08-3.07.29-1.45.24-2.64.57-3.52.81l-.35.1c-1.08.29-2.03.67-2.83,1.04-1.43.21-3.14.65-4.91,1.56-2.11,1.08-3.59,2.44-4.59,3.56-.31.2-.64.42-.98.67l-.1.06c-.34.2-.81.48-1.36.84-1,.45-2.5,1.23-3.99,2.51-1.57,1.33-2.63,2.79-3.35,4.02-.1.09-.2.19-.3.29l-.1.08c-.5.42-1.35,1.13-2.24,2.1-.34.37-.64.72-.91,1.04-.95.69-2.13,1.69-3.24,3.09-.97,1.23-1.64,2.48-2.11,3.59-.16.19-.32.4-.48.61-.52.56-1.36,1.49-2.19,2.79l-.14.2c-.38.52-.95,1.29-1.54,2.3-.41.71-.81,1.44-1.2,2.16l-.14.26c-.07.12-.14.23-.21.35-.3.5-.71,1.17-1.13,1.99-2.93-5.85-9.67-9.01-16.22-7.21C3.17,33.67-1.15,40.79.27,47.93c.07.74.21,1.97.61,3.4.17.62.37,1.24.57,1.85.05.16.11.31.15.45.12.45.25.89.38,1.34.09.33.19.65.28.99.3,1.08.69,2.04,1.12,2.88.08.54.2,1.1.36,1.68.04.16.07.31.11.47.1.44.2.88.31,1.32.09.66.24,1.71.58,2.97.28,1.01.58,1.82.79,2.36l.07.18c.17.58.36,1.15.55,1.73.05.13.09.26.11.32l.63,2.33c.09.34.18.68.27,1.02.11.44.23.87.35,1.31.37,1.34.83,2.41,1.12,3.04.15.47.32.91.49,1.3.08.78.23,1.65.49,2.59.13.49.28.97.44,1.45.07.84.22,2,.57,3.28.39,1.4.89,2.51,1.25,3.26.04.14.09.29.13.43.09.29.17.58.25.87.09.33.18.66.26.98.11.42.22.85.34,1.29,1.44,5.24,5.79,9.18,11.16,10.09.78.13,1.57.2,2.34.2,4.49,0,8.76-2.16,11.41-5.89l.16-.2c.38-.47.76-.94,1.15-1.46.25-.35.5-.7.75-1.06.07-.1.14-.21.21-.31.28-.29.66-.68,1.08-1.17.44-.41,1.13-1.05,1.88-1.92.77-.9,1.31-1.71,1.66-2.23.21-.26.4-.51.59-.76.45-.34.92-.72,1.39-1.16l.08-.06c.41-.32,1.02-.81,1.7-1.45.1-.09.21-.18.32-.27.42-.35.84-.7,1.24-1.06.46-.41.89-.84,1.32-1.27l.22-.22c.92-.8,1.6-1.56,2.03-2.06.19-.17.37-.35.53-.52.37-.2.76-.43,1.16-.68.57-.29,1.44-.75,2.42-1.42.84-.58,1.55-1.19,2.14-1.77.45.09.94.26,1.42.23.67-.04,1.35-.22,2.19-.08.81.14,1.53.43,2.29.71.77.27,1.67.21,2.4.58.37.19.77.33,1.17.48.53.87,1.11,1.62,1.69,2.26.44.92,1.01,1.89,1.76,2.86,1.04,1.33,2.09,2.34,2.78,3.02l.11.1c1.08,1.05,2.12,1.79,2.9,2.29.8.79,2,1.85,3.66,2.78,1.19.67,2.36,1.11,3.4,1.4,1.15.71,2.61,1.41,4.36,1.85,1.62.41,3.11.59,4.36.71,1.42.14,2.92.16,4.59.06,1.91-.11,3.61-.48,4.72-.74,1.25-.3,2.92-.74,4.69-1.52l.2-.09c1-.44,2.51-1.1,4.15-2.2,1.53-1.03,2.67-2.13,3.35-2.79l.23-.22c1.61-1.51,2.64-3.14,3.3-4.46.57-.66,1.21-1.5,1.82-2.52.83-1.4,1.33-2.66,1.63-3.41l.09-.24c.6-1.37.97-2.56,1.24-3.43l.2-.63c.26-.77.64-1.94.92-3.4.16-.82.24-1.56.29-2.18.36-1.05.73-2.45.85-4.09l.04-.29c.09-.69.22-1.74.24-3.02.01-1.12-.09-2.11-.22-2.94,0-.08.02-.15.02-.23.02-.26,0-.53,0-.79.02-.35.02-.74.01-1.14.03-.21.09-.43.19-.64.37-.77.75-1.45,1.28-1.91.61-.52,1.32-1.07,2.09-1.15.71-.08,1.41.55,2.2.86.65.26,1.24.63,1.89,1.18.44.36.89.7,1.31,1.08.1.36.22.73.36,1.11.23.64.45,1.29.67,1.94.39,1.17.83,2.08,1.12,2.67.19.53.39,1.01.58,1.41-.02,1.12.06,2.46.41,3.94.41,1.76,1.09,3.22,1.76,4.36,0,.06.01.13.02.19-.05.79-.07,1.91.08,3.21v.13c.02.54.04,1.37.16,2.35.1.84.25,1.58.41,2.22-.02.42-.02.89,0,1.39v.03c-.03.55-.09,1.48-.04,2.57.03.76.12,1.46.23,2.08-.08.61-.13,1.28-.13,2.02,0,.62.02,1.24.05,1.85,0,.11.01.21.02.32-.17,7.66,5.86,14.05,13.54,14.3.15,0,.31,0,.46,0,7.52,0,13.74-5.97,13.98-13.55.02-.66.01-1.25,0-1.75.2-.97.39-2.28.36-3.81Z"/>
      <path class="cls-2" d="M159.29,86.22c.18-.57.39-1.36.37-2.29-.02-.93-.24-1.69-.39-2.24,0,0,0-.02,0-.03.22-.62.55-1.6.46-2.78-.08-1.11-.47-1.98-.72-2.55-.02-.04-.03-.07-.05-.11,0-.12.01-.27.02-.39.03-.52.06-1.18-.03-1.92-.09-.74-.27-1.36-.41-1.86-.05-.17-.11-.39-.14-.52,0-.11.02-.22.03-.33.05-.57.13-1.36-.02-2.27-.14-.83-.41-1.52-.61-2.02-.06-.15-.12-.29-.15-.39-.12-.65-.3-1.23-.45-1.69-.08-.24-.16-.48-.21-.73-.06-.26-.08-.53-.12-.79-.06-.47-.12-.99-.25-1.57,0-.11,0-.22,0-.33.01-.59.02-1.4-.21-2.32-.06-.23-.08-.47-.12-.7-.07-.5-.16-1.11-.35-1.78-.33-1.18-1-2.01-1.4-2.5-.02-.03-.04-.05-.06-.08-.13-.41-.28-.82-.42-1.22-.09-.26-.18-.53-.26-.75-.04-.15-.05-.3-.07-.46-.07-.54-.17-1.27-.46-2.07-.1-.27-.18-.55-.27-.83-.14-.47-.3-1.01-.53-1.57-.11-.27-.2-.56-.3-.84-.18-.52-.36-1.04-.57-1.54-.11-.26-.22-.52-.32-.79-.21-.52-.43-1.05-.66-1.55-.42-.92-1.01-1.57-1.44-2.01-.06-.65-.18-1.62-.71-2.61-.55-1.03-1.3-1.67-1.8-2.09,0-.03-.02-.07-.03-.1-.17-.57-.4-1.34-.91-2.14-.15-.24-.29-.48-.44-.72-.3-.5-.6-1-.92-1.47-.73-1.08-1.7-1.64-2.35-1.98-.01-.02-.02-.05-.04-.07-.24-.48-.58-1.14-1.1-1.79-.17-.21-.32-.43-.48-.65-.31-.43-.65-.92-1.08-1.39-.1-.13-.18-.28-.26-.42-.29-.48-.69-1.15-1.3-1.78-.43-.45-.89-.87-1.35-1.3-.2-.18-.4-.36-.59-.55-.56-.53-1.12-.92-1.58-1.23-.19-.13-.39-.26-.55-.39-.12-.11-.21-.25-.32-.38-.37-.45-.87-1.07-1.6-1.63-.76-.58-1.51-.9-2.07-1.14-.14-.06-.29-.12-.38-.16-.75-.5-1.49-.79-2.02-.99-.16-.06-.33-.12-.48-.19-.22-.12-.42-.26-.63-.4-.47-.31-1.05-.7-1.75-1.03l-.43-.21c-.63-.31-1.34-.65-2.11-.95-.86-.33-1.65-.44-2.23-.53-.13-.02-.3-.04-.42-.06-.06-.04-.13-.08-.19-.12-.56-.35-1.42-.87-2.58-1.08-.23-.04-.47-.1-.71-.15-.62-.14-1.33-.3-2.13-.37-.24-.02-.48-.06-.72-.09-.6-.09-1.36-.2-2.18-.19-1.14.01-2.07.35-2.68.57-.11.04-.21.08-.32.11-.89.12-1.62.38-2.17.57-.18.06-.36.14-.54.18-.16.03-.32.04-.49.05-.63.05-1.49.13-2.44.47-1,.37-1.72.9-2.24,1.3-.12.09-.23.18-.33.25-.2.1-.41.2-.61.29-.54.25-1.21.55-1.91,1.01-.67.44-1.21.92-1.65,1.31-.07.07-.15.13-.22.2,0,0-.02,0-.02,0-.34.1-.79.23-1.28.45-.08-.04-.16-.08-.23-.12-.66-.38-1.29-.62-1.79-.82-.21-.08-.42-.16-.62-.25-.19-.09-.36-.21-.54-.31-.44-.27-.97-.59-1.64-.87-.05-.04-.09-.08-.14-.11-.52-.42-1.38-1.12-2.61-1.45-1.19-.32-2.22-.18-2.9-.08-.07,0-.14.02-.21.03-.86-.11-1.59-.04-2.13.01-.1,0-.2.02-.29.03-.07-.02-.13-.05-.2-.07-.58-.2-1.46-.51-2.56-.52-.21,0-.43-.03-.64-.06-.56-.06-1.25-.14-2.05-.09-1.15.07-2.04.47-2.62.74l-.06.03s-.09-.01-.14-.02c-.57-.06-1.42-.16-2.39,0-.93.15-1.7.45-2.27.67-.2.08-.39.16-.58.21-.86.23-1.57.56-2.14.82-.21.1-.42.2-.65.28l-.41.16c-.64.25-1.35.52-2.1.89-.07.01-.15.02-.22.04-.71.11-1.77.29-2.85.96-.84.53-1.42,1.16-1.84,1.63-.11.12-.21.25-.28.31-.74.53-1.25,1.14-1.63,1.6-.76.13-1.87.4-2.87,1.25-.44.37-.86.78-1.27,1.19-.19.19-.39.38-.58.56-.77.71-1.19,1.51-1.45,2.13-.63.26-1.45.68-2.16,1.46-.73.79-1.1,1.66-1.32,2.25-.55.33-1.3.81-1.95,1.63-.78.99-1.04,2.04-1.2,2.67,0,.03-.01.05-.02.08-.26.38-.48.74-.68,1.07-.14.23-.28.47-.44.7l-.33.49c-.26.38-.52.76-.77,1.14-.59.38-1.56,1-2.25,2.17-.64,1.09-.74,2.18-.8,2.86-.04.06-.09.13-.14.19-.3.42-.67.93-1,1.58-.12.23-.25.45-.39.67-.26.43-.56.92-.83,1.5-.45.95-.55,1.84-.62,2.42,0,.07-.02.14-.02.21l-.24.54c-.23.5-.45,1.01-.67,1.52-.05.12-.18.35-.3.56-.25.44-.55.98-.81,1.64-.27.71-.4,1.35-.49,1.87-.04.18-.08.44-.11.52-.09.25-.2.49-.31.74-.14.31-.29.64-.44,1.02-.47.49-1.27,1.31-1.67,2.59-.29.91-.32,1.74-.33,2.29,0,.06,0,.12,0,.18-.03.06-.07.11-.1.17-.29.49-.69,1.16-.94,2.05-.31,1.1-.24,2.06-.19,2.7-.02.04-.05.08-.07.12-.28.48-.65,1.13-.9,1.97-.15.53-.27,1.05-.38,1.57-.06.3-.12.59-.17.79-.06.14-.13.26-.21.39-.06.1-.12.22-.18.34,0-.03-.02-.06-.03-.08-.02-.09-.05-.37-.08-.58-.06-.5-.12-1.13-.31-1.82-.13-.47-.29-.94-.45-1.41-.1-.3-.21-.59-.29-.89l-.65-2.33c-.13-.49-.3-.97-.48-1.45-.1-.28-.21-.56-.28-.81-.03-.16-.03-.32-.05-.49-.04-.51-.09-1.2-.3-1.96-.09-.32-.16-.64-.23-.97-.1-.46-.2-.92-.33-1.38-.17-.61-.38-1.14-.55-1.57-.1-.24-.19-.46-.24-.63,0-.11,0-.23-.01-.34-.02-.55-.04-1.31-.27-2.17-.12-.45-.27-.9-.42-1.35-.1-.32-.21-.63-.3-.95-.29-1.04-.81-1.8-1.16-2.31-.03-.05-.07-.1-.1-.15-.15-.5-.33-.93-.48-1.3-.04-.11-.09-.21-.12-.31.11-.66.27-1.72-.06-2.92-.59-2.13-2.79-3.38-4.92-2.79-1.95.54-3.16,2.42-2.91,4.36,0,.03-.01.06-.02.1-.11.65-.29,1.74.05,2.98.17.61.38,1.15.56,1.58.11.28.22.54.26.71.29,1.04.81,1.8,1.16,2.3.03.05.07.1.1.14.11.36.22.72.34,1.08.1.29.19.57.28.87.01.12,0,.23.01.35.02.55.04,1.31.27,2.17.17.61.38,1.14.55,1.57.11.28.22.54.26.71.09.32.16.64.23.97.1.46.2.92.32,1.35.03.16.03.32.05.49.04.51.09,1.2.3,1.96.13.49.3.97.48,1.44.1.28.21.56.29.85l.65,2.33c.13.47.29.94.45,1.4.1.3.21.59.29.9.02.09.05.37.08.58.06.5.12,1.13.32,1.82.17.62.39,1.16.57,1.59.11.26.22.53.26.68.19.7.46,1.28.67,1.74.08.18.2.43.22.51.03.12.07.41.1.66.06.48.14,1.08.32,1.73.08.27.12.56.17.84.08.46.18.97.33,1.53.18.64.4,1.18.59,1.62.09.21.18.43.23.57,0,.11,0,.23.01.34.02.55.04,1.31.27,2.17.2.74.5,1.35.73,1.84.08.17.17.33.22.48.41,1.5,1.66,2.62,3.19,2.88.22.04.45.06.67.06,1.3,0,2.54-.63,3.29-1.73.42-.61.69-1.2.9-1.67.05-.11.09-.22.13-.3.04-.03.09-.07.13-.1.42-.32,1.07-.8,1.63-1.53.29-.37.55-.77.81-1.16.15-.23.3-.47.47-.68.06-.07.26-.25.41-.38.35-.31.79-.69,1.22-1.19.39-.46.7-.91.94-1.27.14-.21.3-.45.39-.54.48-.53.81-1.05,1.07-1.46.09-.14.17-.28.25-.38.45-.48.79-.95,1.06-1.33.12-.17.28-.39.27-.4.11-.09.24-.16.37-.24.42-.26.99-.63,1.54-1.15.07-.06.29-.2.44-.3.4-.26.89-.59,1.39-1.04.28-.25.55-.5.81-.76.27-.26.55-.52.83-.76.68-.58,1.11-1.19,1.42-1.64l.08-.12c.05-.02.11-.05.16-.07.44-.2,1.02-.46,1.63-.9.07-.03.15-.06.23-.08.5-.19,1.26-.47,2.01-1.02.77-.56,1.28-1.22,1.61-1.65.04-.06.09-.12.13-.17.56-.41.97-.85,1.29-1.19.62-.1,1.54-.28,2.46-.84.84-.52,1.39-1.18,1.76-1.72.57-.09,1.28-.27,2.02-.67,1.94-1.05,2.66-3.48,1.6-5.42-.99-1.82-3.19-2.57-5.06-1.78-.05,0-.1.01-.14.02-.61.08-1.64.22-2.68.81-.92.53-1.5,1.24-1.9,1.81-.63.12-1.44.33-2.26.86-.74.48-1.26,1.03-1.64,1.44-.09.09-.17.19-.26.27-.81.57-1.33,1.25-1.68,1.7,0,.01-.02.02-.03.04-.02,0-.04.01-.05.02-.52.19-1.29.48-2.06,1.05-.1.05-.21.1-.31.14-.52.23-1.22.56-1.93,1.13-.74.6-1.22,1.28-1.54,1.74-.06.08-.11.16-.17.24-.36.32-.72.65-1.06.98-.21.2-.42.4-.64.6-.07.06-.29.2-.44.31-.44.29-.98.65-1.49,1.13-.11.09-.24.16-.36.24-.45.29-1.08.68-1.68,1.28-.08.08-.13.16-.21.23.01-.05.03-.09.05-.14.13-.45.23-.92.33-1.4.06-.29.12-.59.2-.89.05-.1.11-.2.17-.29.29-.5.68-1.18.94-2.08.31-1.08.23-2.03.18-2.66,0,0,0,0,0-.01l.04-.06c.28-.47.66-1.12.91-1.96.23-.78.28-1.48.3-2.02.46-.49,1.06-1.22,1.41-2.26.09-.27.22-.53.33-.79.2-.44.39-.87.55-1.32.24-.66.35-1.25.44-1.73.04-.18.08-.43.1-.5.04-.11.19-.36.3-.57.22-.39.5-.88.74-1.46.18-.43.37-.85.56-1.27l.36-.8c.39-.9.49-1.73.56-2.29,0-.05.01-.11.02-.17.09-.16.2-.34.32-.53.25-.41.49-.81.71-1.24.05-.09.22-.34.35-.52.26-.36.59-.82.89-1.37.42-.78.58-1.54.66-2.15.52-.37,1.14-.89,1.63-1.68.28-.45.58-.89.88-1.32l.35-.52c.23-.34.45-.69.66-1.04.17-.28.33-.56.53-.83.56-.76.83-1.56.98-2.14.49-.3,1.11-.72,1.67-1.38.55-.65.87-1.32,1.08-1.85.58-.25,1.33-.63,2-1.3.85-.85,1.24-1.82,1.47-2.41.14-.13.27-.26.41-.4.1-.1.21-.21.31-.31.74-.12,1.82-.35,2.83-1.14.69-.54,1.16-1.12,1.51-1.55.08-.1.16-.21.25-.3.63-.47,1.1-.98,1.44-1.36.02-.03.05-.05.07-.08.59-.09,1.46-.24,2.36-.71.43-.22.94-.42,1.52-.64l.45-.17c.36-.14.71-.3,1.06-.46.35-.16.68-.31.9-.37.54-.14,1.01-.33,1.39-.48.19-.07.44-.17.59-.22.09,0,.19.02.28.03.52.06,1.24.14,2.07.04,1.01-.12,1.8-.48,2.32-.71l.06-.03c.14.01.3.03.43.04.35.04.77.09,1.23.1.07.02.14.05.22.08.48.17,1.21.42,2.09.5.73.06,1.36,0,1.82-.05.12-.01.24-.03.37-.03.75.11,1.43.06,1.94,0,.45.35,1.06.78,1.85,1.07.09.04.34.19.52.3.34.21.76.46,1.26.7.15.07.31.14.47.21-.31.58-.48,1.12-.61,1.53-.02.07-.04.14-.06.21l-.25.36c-.33.47-.66.93-.97,1.41-.05.04-.1.08-.14.12-.5.41-1.27,1.04-1.84,2.05-.54.96-.71,1.89-.82,2.5-.01.07-.02.14-.04.21-.11.2-.22.39-.33.58-.2.34-.42.71-.63,1.12-.02.02-.04.03-.06.05-.45.42-1.2,1.11-1.7,2.19-.24.54-.42,1.04-.58,1.49-.09.25-.18.51-.28.75-.49,1.15-.47,2.21-.41,2.92-.01.02-.02.04-.04.06-.24.42-.58,1-.84,1.7-.03.08-.15.31-.24.48-.25.46-.55,1.03-.79,1.74l-.16.49c-.2.61-.41,1.22-.55,1.75-.05.12-.12.24-.18.35-.26.49-.61,1.17-.82,2.03-.18.75-.22,1.42-.25,1.96,0,.18,0,.36-.04.53-.19.99-.1,1.85-.04,2.42,0,.08.02.17.03.25-.03.17-.06.34-.09.51-.1.58-.22,1.23-.26,1.97l-.03.47c-.05.63-.1,1.34-.09,2.1-.01.11-.04.22-.06.33-.11.57-.28,1.43-.19,2.43.02.21.01.42.01.63,0,.57,0,1.28.14,2.07.21,1.17.78,2.03,1.26,2.61-.07.69-.08,1.61.29,2.62.41,1.11,1.07,1.85,1.5,2.34.03.04.06.07.09.1.03.08.05.17.07.26.17.58.41,1.36.91,2.18.57.92,1.28,1.5,1.79,1.89.2.71.58,1.81,1.54,2.74.84.81,1.78,1.19,2.44,1.41.4.62,1.03,1.48,2.12,2.1,1.06.59,2.08.71,2.75.79.52.41,1.39,1.08,2.61,1.39,1.03.26,1.97.2,2.59.17.14,0,.28-.02.37-.02.97.1,1.88.04,2.6-.01l.35-.02c.94-.06,1.91-.2,2.88-.42.1,0,.2,0,.3-.01.69-.02,1.74-.06,2.85-.55,1.26-.55,2.02-1.46,2.48-2.01.04-.05.08-.1.13-.15.73-.53,1.24-1.11,1.62-1.54.11-.12.21-.25.33-.37.79-.75,1.4-1.4,1.96-2.11.59-.75,1.11-1.51,1.6-2.33.09-.16.21-.3.31-.45.33-.45.78-1.06,1.14-1.85.06-.09.12-.17.19-.26.37-.5.92-1.27,1.24-2.31.32-1.02.3-1.95.29-2.57,0-.1,0-.21,0-.31.04-.14.09-.27.14-.41.19-.53.45-1.24.56-2.12.09-.72.08-1.38.08-1.91,0-.22,0-.44,0-.65.03-.11.06-.22.1-.33.17-.58.41-1.38.43-2.36.02-1.31-.45-2.34-.73-2.95,0,0,0-.01,0-.02,0-.11.01-.21.02-.32.03-.54.07-1.2,0-1.91,0-.15.02-.29.03-.44.05-.58.12-1.37-.03-2.28-.16-1.01-.56-1.81-.82-2.34-.05-.1-.1-.19-.14-.29l-.05-.23c-.14-.61-.28-1.22-.44-1.83,0-.06,0-.11.01-.17.04-.62.09-1.56-.23-2.62-.23-.75-.55-1.37-.79-1.83-.08-.16-.17-.31-.23-.47-.21-.62-.46-1.14-.68-1.61-.11-.23-.22-.46-.31-.7-.04-.09-.1-.36-.14-.55-.12-.52-.28-1.16-.58-1.87-.36-.84-.84-1.45-1.18-1.9-.08-.11-.17-.21-.19-.23-.12-.24-.22-.49-.33-.73-.2-.45-.42-.96-.69-1.48-.04-.11-.06-.22-.09-.32-.16-.57-.37-1.35-.86-2.17-.38-.63-.79-1.13-1.12-1.54-.14-.17-.29-.34-.41-.52l-.22-.33c-.4-.6-.81-1.21-1.24-1.79-.15-.2-.29-.42-.44-.63-.3-.45-.65-.96-1.09-1.48-.75-.89-1.64-1.35-2.29-1.63-.17-.34-.39-.77-.71-1.2.19-.17.37-.32.51-.41.17-.11.48-.25.81-.4s.66-.3.99-.47c.61-.32,1.1-.69,1.46-.95.07-.05.14-.11.21-.16.11-.01.22-.02.33-.03.44-.04,1-.08,1.62-.23.56-.13,1.04-.3,1.42-.44.19-.07.46-.16.52-.18.84-.1,1.53-.35,2.03-.53.07-.03.14-.05.21-.08.21.02.48.06.75.1.39.06.79.11,1.17.15.28.03.68.12,1.1.21.23.05.47.1.7.15.06.03.11.07.17.1.46.28,1.16.71,2.05.96.61.17,1.15.25,1.59.31.19.03.45.06.49.07.46.17.95.42,1.48.67l.47.23c.19.09.48.28.78.48.35.23.7.46,1.07.67.6.35,1.15.56,1.6.73.16.06.33.12.43.17.64.43,1.26.69,1.72.89.11.05.22.09.33.14.09.1.16.2.25.3.31.38.73.9,1.29,1.38.45.38.89.69,1.25.94.22.15.5.34.6.44.23.22.47.43.7.65.34.31.67.61.94.89.1.13.18.28.27.42.26.42.61,1,1.11,1.57.16.18.36.46.58.76.25.34.5.69.73.98.09.13.15.28.23.43.21.42.5.98.93,1.56.74,1,1.67,1.52,2.27,1.83.12.19.23.39.35.58.15.26.31.52.47.78.04.1.06.21.09.31.15.52.37,1.22.8,1.97.46.79,1.03,1.34,1.48,1.73.06.62.19,1.45.62,2.32.44.9,1.04,1.52,1.44,1.94.04.05.09.09.13.14.14.33.28.66.42,1,.12.3.25.61.38.91.14.32.24.65.36.98.14.4.27.8.43,1.2.12.31.21.63.31.95.13.42.26.84.38,1.18.04.15.05.3.07.45.07.5.15,1.18.4,1.92.1.3.2.59.31.89.15.43.3.86.44,1.3.34,1.11.96,1.87,1.36,2.37.02.12.04.25.06.38.06.41.13.91.26,1.44,0,.1,0,.21,0,.32,0,.55-.02,1.31.18,2.18.05.21.09.52.13.85.06.49.13.97.23,1.45.12.57.27,1.05.41,1.49.09.3.18.58.22.75.14.77.4,1.41.58,1.87.05.11.1.23.13.31,0,.1-.02.19-.03.29-.05.54-.12,1.27,0,2.12.09.67.26,1.24.39,1.69.06.2.14.48.15.58,0,.1,0,.39-.01.6-.02.47-.05,1.06.01,1.73.08.91.37,1.64.6,2.18-.2.59-.45,1.44-.4,2.45.04.86.24,1.57.39,2.09,0,.03.02.07.03.1,0,0,0,0,0,.01-.18.55-.46,1.38-.46,2.4,0,1.34.5,2.37.8,2.98,0,.02.01.03.02.04.27,1.88,1.86,3.36,3.83,3.42.04,0,.09,0,.13,0,2.15,0,3.93-1.71,4-3.87.04-1.17-.32-2.11-.62-2.76ZM101.13,34.53c.13.16.28.34.37.47.03.09.05.18.07.27.14.5.32,1.18.71,1.91.17.32.31.65.46.98.15.33.29.67.45.99.34.72.76,1.26,1.07,1.66.06.08.13.16.19.25.04.12.08.32.12.48.1.44.23.99.46,1.58.16.42.35.83.54,1.24.14.3.28.58.34.78.22.64.49,1.16.71,1.58.04.09.09.17.13.25,0,.02,0,.04,0,.05-.03.58-.08,1.44.18,2.42.16.6.3,1.21.44,1.81l.08.34c.19.81.5,1.46.73,1.93.03.05.05.11.08.16,0,.08-.02.16-.02.24-.04.48-.1,1.14-.02,1.89.01.13,0,.45-.02.7-.02.41-.05.91-.03,1.47.04,1.02.37,1.85.62,2.42-.15.49-.33,1.14-.39,1.92-.03.45-.03.91-.03,1.37,0,.31,0,.64,0,.75-.04.16-.1.32-.16.48-.16.45-.36,1-.49,1.67-.14.74-.13,1.4-.12,1.87,0,.01,0,.03,0,.04,0,0,0,.01-.01.02-.29.39-.68.94-.98,1.62-.04.08-.2.3-.32.46-.26.36-.52.72-.74,1.09-.31.52-.63.99-1,1.46-.31.4-.66.77-1.17,1.24-.31.3-.6.62-.88.94-.1.12-.19.24-.3.34-.56.39-.98.83-1.3,1.19-.42.02-.94.06-1.5.19-.56.13-1.1.21-1.6.24l-.4.03c-.5.03-.97.06-1.28.03-.27-.03-.53-.04-.77-.04-.31,0-.58.02-.83.03-.41-.32-.99-.74-1.74-1.04-.58-.23-1.13-.34-1.58-.41-.31-.46-.76-1.02-1.39-1.49-.52-.39-1.04-.63-1.49-.81-.18-.51-.45-1.1-.9-1.68-.52-.67-1.11-1.12-1.51-1.43-.01-.04-.02-.07-.03-.11-.12-.41-.29-.97-.58-1.57-.3-.62-.67-1.11-.99-1.49.06-.59.08-1.37-.14-2.22-.29-1.08-.87-1.85-1.32-2.37v-.07c0-.41,0-.82-.03-1.21.02-.1.04-.2.06-.29.1-.48.23-1.14.22-1.92,0-.44.03-.95.07-1.49l.04-.52c.02-.32.09-.69.16-1.13.05-.28.1-.56.14-.84.13-.88.05-1.64,0-2.15,0-.07-.02-.15-.02-.22.09-.54.12-1.02.14-1.41,0-.15,0-.31.03-.44.04-.1.1-.19.15-.28.23-.43.54-1.03.75-1.77.15-.51.32-1.02.49-1.53l.17-.51c.03-.08.15-.31.24-.48.21-.4.48-.89.7-1.49.07-.16.16-.3.25-.46.23-.4.52-.89.76-1.5.47-1.17.41-2.24.35-2.92.08-.22.16-.45.24-.67.06-.16.11-.32.17-.47.43-.4,1.16-1.08,1.66-2.11.14-.3.32-.59.49-.88.22-.37.44-.75.64-1.13.43-.82.59-1.61.69-2.17.46-.38,1.09-.93,1.59-1.74.27-.43.56-.84.85-1.26l.41-.58c.35-.51.58-1.01.75-1.45.21.37.49.76.85,1.14.79.83,1.69,1.23,2.29,1.47.08.12.17.25.26.38.21.32.43.63.66.94.34.46.66.94.98,1.42l.23.35c.3.46.63.85.88,1.16Z"/>
    </g>
  </g>
</svg>