<?xml version="1.0" encoding="UTF-8"?>
<svg id="Livello_2" data-name="Livello 2" xmlns="http://www.w3.org/2000/svg" viewBox="0 0 120.34 113.16">
  <defs>
    <style>
      .cls-1 {
        fill: #fff6e9;
      }

      .cls-2 {
        fill: #121212;
      }
    </style>
  </defs>
  <g id="Livello_1-2" data-name="Livello 1">
    <g>
      <path class="cls-1" d="M119.85,34.32c0-.25-.01-.51-.02-.78.1-1.36.14-3.77-.82-6.55-1.24-3.56-3.42-5.71-4.36-6.63-2.08-2.26-4.27-3.39-5.34-3.94l-.12-.06c-1.46-.76-2.84-1.19-3.93-1.45-1.53-.7-3.74-1.44-6.44-1.44-1.01,0-1.94.1-2.76.24-.55-.07-1.16-.11-1.81-.12-.32,0-.64-.01-.95-.02-.45-.01-.9-.03-1.28-.03-.14,0-.27-.02-.41-.03-.67-.05-1.33-.09-1.98-.1-1.06-.02-1.93.05-2.51.1-.77-1.53-1.67-2.73-2.42-3.58-.9-1.61-2.47-3.81-5.15-5.54l-.15-.1c-.9-.59-2.77-1.83-5.33-2.59l-.26-.08c-.83-.26-2.23-.7-3.95-.94-2.3-.31-4.32-.05-5.92.38-1.26-.47-3.04-.96-5.2-1.01h-.35c-.86-.03-1.72-.04-2.59-.04-2.1.02-3.78.44-4.86.77-.87.13-1.59.31-2.1.44-.75.1-1.4.21-1.91.3l-.52.09c-.16.02-.31.04-.47.06-.72.1-1.72.23-2.9.5-2.2.51-4.17,1.3-6,2.4-1.53.72-4.61,2.4-6.83,6.04l-.02.04c-.39.57-1.09,1.6-1.73,2.98-.58-.05-1.18-.08-1.82-.06-.56.02-1.13.05-1.69.08-.26.02-.51.03-.77.04-1.44.04-2.67.27-3.51.46h-.02c-.46.01-.91.03-1.4.04-3.04.11-5.38,1.1-6.86,1.88-1.49.47-3.68,1.39-5.77,3.29-3.5,3.2-4.54,7-4.88,9.48-.4.95-.8,2.14-1.04,3.53-.2,1.14-.25,2.21-.22,3.16-.33,1.34-.54,2.96-.4,4.79.18,2.44.93,4.44,1.7,5.93.28,1.16.75,2.55,1.55,4l.09.17c.56,1.05,1.72,3.22,3.96,5.27.74.68,1.49,1.22,2.22,1.68-.02.98.05,1.88.16,2.65-.1.63-.17,1.34-.19,2.12-.02.91.02,1.7.07,2.31-.08.49-.16,1.09-.21,1.78-.12.68-.32,1.83-.36,3.21-.03.95.02,1.77.04,2.31v.3c-.01,1.67.23,3.13.55,4.31-.15.79-.29,1.76-.32,2.86,0,.33,0,.64,0,.93-.3,1.08-.56,2.41-.6,3.94-.02.85.03,1.64.12,2.37-.15.77-.25,1.61-.27,2.51,0,.33-.02.66-.04.99-.02.48-.04.96-.05,1.45-.05,1.92.23,3.47.4,4.39l.04.19c.59,4.04,2.65,6.77,3.73,8.05,2.02,2.87,4.48,4.42,6.01,5.2,1.21.78,2.93,1.67,5.23,2.16.9.19,1.74.28,2.47.33,1.08.37,2.43.71,3.98.83.15.01.29.03.44.05.58.07,1.35.16,2.27.2l.19.02c.63.07,1.59.19,2.78.2.77.01,1.49-.04,2.17-.13.83.15,1.74.25,2.72.25,1.15,0,2.18-.13,3.06-.3.52.05,1.09.09,1.72.08,1.2,0,2.28-.14,3.2-.34,1.04.26,2.37.48,3.88.48h.08c.65,0,1.3-.04,1.95-.07.16,0,.31-.02.43-.02,1.32,0,2.4-.16,3.05-.25.88-.04,1.69-.16,2.4-.3.4.04.83.06,1.3.07h.07c.59.07,1.57.17,2.74.15,1.22-.01,2.23-.14,2.85-.22.32,0,.64-.01.97-.02.32,0,.64-.02.95-.02.29,0,.58-.01.87-.02,1.03.24,2.38.46,3.92.43.95-.01,1.81-.11,2.54-.23.66.08,1.41.13,2.24.11.76-.01,1.46-.08,2.11-.18.8.12,1.7.19,2.67.18,1.33-.03,2.48-.21,3.37-.41.66.03,1.47.04,2.38,0,.17,0,.34-.01.52-.02.92-.03,2.3-.08,3.88-.35,4.28-.73,7.84-3.05,10.59-6.9,1.08-1.2,3.3-3.78,4.24-7.88.55-2.4.51-4.41.48-5.61v-.32c0-.26-.01-.53-.02-.79.26-1.05.48-2.38.48-3.91,0-.98-.1-1.88-.24-2.69.08-.62.13-1.3.12-2.03,0-1.53-.24-2.88-.53-3.99,0-.23.01-.47.01-.72,0-.17,0-.35,0-.51.32-1.16.57-2.56.57-4.14,0-.15.01-.3.02-.45.03-.65.06-1.3.06-1.96,0-.92-.09-1.77-.21-2.53.09-.66.14-1.39.14-2.18,0-1.37-.19-2.59-.43-3.6.2-.9.35-1.94.37-3.07.36-.18.71-.37,1.08-.59,3.67-2.22,6.2-5.27,7.52-9.05.62-1.77.79-3.33.85-4.24.03-.19.06-.38.08-.57.48-1.22,1-2.96,1.11-5.07.1-1.92-.17-3.57-.47-4.77Z"/>
      <g>
        <path class="cls-2" d="M109.71,36.29c.3-.66.69-1.7.55-2.99-.16-1.44-.89-2.47-1.28-3.03-.01-.02-.03-.04-.04-.06v-.04c-.26-.75-.63-1.88-1.56-2.93-.9-1.02-1.95-1.5-2.58-1.78-.1-.04-.2-.09-.29-.14-.93-.48-1.84-.82-2.79-1.03-.07-.03-.14-.06-.21-.08-.56-.23-1.51-.62-2.69-.62-.27,0-.54-.03-.81-.06-.45-.04-.96-.09-1.53-.09-.67-.01-1.26.07-1.73.14-.23.03-.51.11-.6.07-.17-.01-.33-.05-.5-.08-.47-.09-1.12-.21-1.86-.22-1,0-1.85.26-2.43.48-.56-.2-1.33-.44-2.27-.46-.27,0-.53-.04-.8-.07-.46-.05-.97-.11-1.56-.12-1.32-.05-2.36.47-3,.8-.22,0-.45,0-.67,0h-1.06c-.28-.02-.57-.05-.85-.08-.23-.02-.45-.03-.68-.05-.07-.32-.12-.73-.16-1.1.02-.07.04-.13.05-.2.18-.71.45-1.78.23-3.06-.31-1.79-1.43-2.93-2.04-3.54-.06-.06-.12-.12-.18-.18-.02-.04-.03-.08-.05-.11-.3-.68-.86-1.94-2.24-2.83-.1-.07-.21-.14-.31-.21-.62-.42-1.47-1.01-2.6-1.35-1.07-.32-2.02-.23-2.68-.13-.57-.3-1.39-.68-2.45-.75-.69-.04-1.31,0-1.81.03-.28.02-.56.04-.7.03-1.07-.06-1.96.18-2.55.34-.01,0-.02,0-.03,0-.02,0-.04-.01-.06-.02-.56-.19-1.41-.49-2.46-.51-1.14-.02-2.04.28-2.64.49-.07.02-.13.05-.2.07-.55,0-1.1.04-1.64.07l-1.23.06c-.59.03-1.18.05-1.78.1l-.1-.03c-.65-.19-1.75-.5-3.05-.29-.8.13-1.48.36-2.02.55-.21.07-.43.16-.65.21-.15.04-.32.06-.48.09-.88.16-2.21.41-3.44,1.26-1.35.93-2.1,2.22-2.59,3.07-.07.11-.16.22-.24.34-.41.55-.96,1.31-1.3,2.36-.3.94-.36,1.8-.4,2.44-.01.19-.01.38-.05.55-.17.84-.21,1.63-.23,2.26,0,.05,0,.1,0,.16-.66.03-1.23.13-1.69.22-.19.04-.45.09-.53.09-.35,0-.7,0-1.04,0-.46,0-.92-.01-1.39,0l-2.43.05c-.32,0-.63,0-.95-.02-.47-.02-.94-.04-1.42-.02-.13-.02-.26-.05-.39-.07-.53-.11-1.26-.25-2.12-.22-.77.02-1.41.16-1.92.27-.17.04-.34.08-.5.1-.25,0-.51-.02-.77-.04-.47-.04-1.05-.08-1.68-.06-1.46.05-2.56.72-3.21,1.12-.1.06-.2.13-.31.19-.12.06-.25.11-.37.17-.58.25-1.38.59-2.13,1.28-1.47,1.34-1.85,3.05-2.08,4.07,0,.04-.02.08-.03.13-.41.55-1.09,1.47-1.32,2.8-.24,1.39.14,2.52.37,3.19,0,.01,0,.03.01.04,0,.72.1,1.33.18,1.79,0,0,0,.01,0,.02-.28.75-.7,2.01-.31,3.52.43,1.64,1.52,2.57,2.11,3.08.37.69.89,1.58,1.83,2.45.64.59,1.52,1.39,2.87,1.97.87.37,1.78.62,2.85.78.04.02.09.05.13.07.06.03.14.07.21.11l-.03,1.03c-.39.64-.97,1.67-1.01,3.05-.03,1.03.21,1.88.38,2.44.02.06.04.13.06.19-.02.16-.05.36-.08.56-.07.46-.15,1.04-.17,1.68-.02.72.06,1.35.13,1.85.02.13.04.3.05.43-.02.05-.04.11-.06.16-.19.55-.49,1.39-.52,2.42-.01.48,0,.96.01,1.45,0,.33.02.66.01.99-.01.42-.02.84-.02,1.27,0,.39-.01.78-.02,1.17-.03.96.18,1.78.32,2.32.02.08.04.16.06.25-.02.14-.05.34-.08.5-.09.49-.2,1.11-.22,1.81-.02.8.1,1.5.19,2.01.03.16.06.32.07.43-.02.69.05,1.29.11,1.78.02.16.04.33.05.46-.02.05-.04.1-.06.15-.2.56-.51,1.42-.54,2.47-.02.7.06,1.32.12,1.82.03.22.06.52.06.63-.02.67.05,1.26.1,1.74.02.21.04.42.05.58-.02.09-.05.17-.08.26-.16.53-.41,1.33-.43,2.25-.02.16-.06.32-.1.48-.11.5-.27,1.19-.29,2-.03,1.06.25,1.95.43,2.54.04.12.08.24.1.32.02.12.02.25.04.39.06.82.16,2.07.9,3.31,1.05,1.76,2.76,2.25,3.59,2.49.07.02.15.04.22.07l.11.06c.41.24,1.09.63,2.03.83.16.04.31.1.46.16.53.2,1.25.47,2.13.58.97.13,1.8,0,2.39-.12.62.33,1.55.76,2.73.8.13,0,.26,0,.39,0,.48,0,.91-.03,1.31-.06.27-.02.54-.04.8-.04.98,0,1.78-.23,2.35-.42.59.22,1.41.5,2.44.5,1.3,0,2.3-.48,2.91-.78.25,0,.49,0,.74-.01.37,0,.74-.01,1.1-.01.28-.03.54.03.81.05.45.04.96.09,1.52.09.47,0,.95-.02,1.42-.04.33-.02.67-.03.91-.04.14.02.28.05.42.08.52.11,1.21.29,2.05.26.71,0,1.32-.1,1.81-.18.12-.02.27-.04.39-.06.05.01.09.03.14.04.55.17,1.37.43,2.37.43h.04c.28.02.55.03.82.05.46.04.97.08,1.56.08,1.02,0,1.86-.28,2.41-.47.07-.02.14-.05.21-.07.73-.03,1.35-.18,1.81-.28.61.27,1.56.65,2.7.63.32-.02.63.01.95.03.48.02.95.04,1.43.04.89-.01,1.62-.2,2.15-.34.11-.03.21-.06.32-.08.39,0,.78-.02,1.17-.03.37,0,.74-.02,1.1-.02.73-.01,1.35-.12,1.85-.21.19-.03.45-.08.53-.08.67-.01,1.26-.1,1.73-.17.02,0,.05,0,.07-.01.67.36,1.64.85,2.97.81,1.21-.02,2.16-.45,2.75-.73.09,0,.18.02.27.03.47.05,1.05.13,1.64.11.17.02.34.07.52.1.65.14,1.54.34,2.57.28,1.49-.08,2.61-.75,3.28-1.16.06-.03.11-.07.17-.1.07,0,.15-.02.22-.02,1.07-.12,3.07-.35,4.53-2.14,1.16-1.43,1.55-3.14,1.81-4.27.27-1.2.42-2.47.41-3.67,0-.85-.17-1.56-.29-2.08-.03-.12-.06-.23-.08-.35,0-.24.03-.47.06-.71.04-.46.09-.98.09-1.57,0-.36,0-.71.02-1.07.01-.43.02-.86.02-1.29,0-.88-.18-1.6-.32-2.13,0-.02-.01-.04-.02-.06.21-.58.52-1.44.51-2.44.01-.14.05-.28.08-.43.1-.5.25-1.19.25-2,0-1.34-.53-2.36-.88-2.99,0-.22-.01-.44-.02-.66-.01-.35-.03-.7-.03-1.05,0-.24.03-.49.06-.73.05-.45.11-1.01.11-1.62,0-.11.04-.39.07-.62.07-.47.15-1.06.14-1.7.01-.16.05-.31.08-.46.09-.49.22-1.16.22-1.93,0-.15.03-.43.06-.7.05-.46.12-1.02.12-1.66,0-.37,0-.75,0-1.12,0-.41.01-.82,0-1.23,0-.82-.15-1.51-.27-2.02-.03-.14-.07-.28-.08-.33,0-.29.02-.58.05-.87.04-.49.07-.99.07-1.48,0-.98-.25-1.79-.41-2.33-.02-.07-.05-.14-.07-.21,0-.27.02-.54.03-.82.01-.34.02-.68.03-1.03.95-.02,1.84-.17,2.64-.31l.25-.04c1.48-.25,2.59-.96,3.33-1.42l.29-.18c1.34-.81,2.01-1.93,2.39-2.83.7-.53,1.51-1.42,1.73-2.85.16-1.06,0-1.97-.1-2.58-.02-.09-.03-.18-.05-.27.03-.21.07-.42.1-.64.09-.54.2-1.15.23-1.85.05-.9-.09-1.67-.2-2.23,0,0,0-.02,0-.02ZM44.68,21.54c0-.13.02-.28.02-.38.05-.07.1-.14.15-.21.25-.35.5-.69.7-1.04.07-.12.16-.28.24-.41.11-.02.23-.04.33-.06.28-.05.56-.11.83-.17.56-.13,1.06-.3,1.45-.44.1-.03.21-.07.31-.11.62.18,1.54.43,2.66.32.58-.06,1.15-.08,1.72-.11l1.33-.07c.49-.03.98-.06,1.48-.06,1.01,0,1.84-.28,2.41-.47.53.18,1.33.46,2.31.5,1.04.04,1.9-.19,2.47-.34.07-.02.15-.04.22-.06.58.02,1.09-.02,1.51-.05.08,0,.16-.01.25-.02.5.28,1.26.65,2.22.79.72.1,1.36.04,1.85-.03.14.3.32.66.57,1.05.25.38.52.71.77.97-.13.58-.23,1.3-.15,2.13,0,.07.02.15.02.23-.02,0-.03,0-.05.01-.38,0-.76,0-1.14.01-.35,0-.69.01-1.04.01-.85,0-1.55.17-2.07.29-.12.03-.23.06-.34.08-.16-.01-.31-.05-.47-.08-.52-.09-1.15-.17-1.92-.19-.31,0-.63-.02-.95-.04-.49-.03-1-.06-1.48-.05-.28,0-.57-.03-.85-.05-.47-.04-.99-.08-1.58-.08-.85,0-1.58.2-2.12.35-.65-.32-1.59-.69-2.75-.69-1.12.01-2.01.38-2.65.71-.57-.2-1.33-.38-2.2-.39-1.18.01-2.13.41-2.72.68-.04,0-.09-.02-.13-.03-.39-.07-.9-.16-1.49-.2.01-.27.03-.52.06-.68.13-.62.16-1.19.19-1.64ZM91.74,61.74c0,.42-.01.83,0,1.25,0,.15-.03.43-.06.7-.05.46-.12,1.02-.12,1.61-.01.16-.05.31-.08.46-.09.49-.22,1.16-.22,1.93,0,.11-.04.39-.07.62-.07.47-.15,1.06-.15,1.74,0,.24-.03.49-.06.73-.05.45-.11,1.01-.11,1.62,0,.44.02.88.03,1.31.01.35.03.7.03,1.04,0,1.21.43,2.16.77,2.8-.09.42-.19.95-.22,1.56-.02.04-.03.09-.05.13-.21.58-.54,1.46-.53,2.57,0,.88.18,1.61.32,2.14.03.11.06.21.08.32,0,.32,0,.64-.02.97-.01.43-.02.86-.02,1.29,0,.26-.03.52-.06.79-.04.46-.09.98-.09,1.57,0,.85.17,1.56.29,2.08.03.12.06.23.08.35,0,.57-.08,1.22-.21,1.8-.02.09-.05.2-.07.32-.1.01-.2.03-.31.05-1.12.19-1.98.68-2.57,1.03-.03,0-.06-.01-.09-.02-.59-.13-1.39-.31-2.32-.29-.13,0-.41-.03-.66-.06-.47-.05-1.06-.12-1.72-.11-.87.02-1.61.25-2.18.48-.64-.31-1.51-.66-2.56-.6-.67,0-1.25.1-1.72.17-.24.04-.52.08-.65.08-.72.01-1.33.12-1.83.21-.19.03-.45.08-.54.08-.4,0-.8.02-1.2.03-.39,0-.78.02-1.16.03-.89.01-1.62.2-2.15.34-.11.03-.21.06-.32.08-.29,0-.57-.02-.86-.03-.3-.01-.6-.03-.9-.03,0,0,0,0,0,0-.6-.27-1.56-.71-2.89-.72-.83,0-1.54.17-2.05.29-.14.03-.27.07-.32.08-1.02,0-1.85.29-2.4.47-.06.02-.12.04-.17.06-.21,0-.41-.03-.62-.05-.39-.03-.82-.07-1.3-.08-.07-.02-.13-.04-.2-.06-.55-.17-1.35-.47-2.41-.43-.71,0-1.31.1-1.8.18-.2.03-.47.08-.47.08-.14-.02-.28-.05-.42-.08-.51-.11-1.22-.24-2.05-.26-.45,0-.89.02-1.33.04-.34.02-.69.03-1.03.03-.31-.04-.54-.03-.82-.05-.45-.04-.96-.09-1.52-.09-.41,0-.83,0-1.25.01-.38,0-.77.01-1.14.01-1.05,0-1.91.31-2.52.59-.57-.2-1.32-.42-2.22-.42h0c-1.04,0-1.89.28-2.44.47-.06.02-.11.04-.17.06-.38,0-.76.03-1.14.05-.13,0-.25.02-.38.03-.57-.31-1.48-.77-2.66-.86-.92-.07-1.7.08-2.21.18-.03,0-.07.01-.1.02-.09-.03-.17-.07-.26-.1-.36-.13-.78-.29-1.28-.42h0c-.26-.15-.52-.29-.79-.42-.04-.02-.09-.04-.13-.06,0-.02,0-.05,0-.07-.09-.6-.25-1.12-.36-1.5-.02-.06-.03-.11-.05-.17.02-.09.04-.19.07-.28.11-.47.25-1.11.28-1.84.02-.1.06-.19.09-.29.16-.53.41-1.33.43-2.29.02-.67-.05-1.26-.1-1.74-.03-.27-.06-.56-.05-.71.02-.7-.06-1.32-.12-1.81-.02-.14-.04-.3-.05-.44.02-.05.04-.1.05-.14.2-.56.51-1.41.54-2.47.02-.69-.05-1.3-.11-1.78-.03-.24-.06-.53-.06-.66.02-.8-.1-1.5-.19-2.01-.03-.16-.06-.32-.07-.43,0-.1.06-.4.09-.62.09-.49.2-1.1.22-1.81.03-.96-.18-1.78-.32-2.32-.02-.09-.05-.19-.07-.28,0-.37.01-.74.02-1.11,0-.39.01-.78.02-1.17.01-.48,0-.96-.01-1.45,0-.26-.02-.52-.02-.78.02-.07.05-.14.07-.21.19-.55.49-1.39.52-2.42.02-.72-.06-1.35-.13-1.85-.03-.21-.06-.5-.06-.59,0-.17.05-.45.09-.75.07-.46.15-1.04.17-1.68.02-.84-.14-1.57-.28-2.11.36-.65.79-1.57.83-2.75l.03-1.26c.18.01.35.03.53.05.48.06,1.07.13,1.73.13h.11c.51,0,1.03-.03,1.54-.06.33-.02.66-.04.99-.05.88-.03,1.62-.22,2.16-.37.13-.04.26-.08.39-.1.78-.04,1.45-.2,1.94-.31.06-.01.11-.03.17-.04.59.22,1.57.57,2.75.54.93-.03,1.72-.3,2.29-.55.61.27,1.46.57,2.47.57,1.12,0,2-.33,2.6-.56l.08.02c.54.13,1.27.31,2.12.31h0c.16.01.32.05.47.08.5.1,1.2.24,2,.24,1.17,0,2.11-.39,2.74-.7.54.14,1.26.32,2.11.32.31,0,.63.02.94.05.49.03.99.06,1.48.06.98,0,1.8-.24,2.34-.4.09-.02.17-.05.25-.07.29,0,.58.02.88.03.9.04,1.81.04,2.71.01.25,0,.51-.01.76-.02.03.01.07.03.1.04.6.23,1.51.58,2.66.58.42,0,.84,0,1.26,0,.9-.01,1.79-.01,2.69-.08.3-.02.6-.05.9-.05.89,0,1.63-.18,2.17-.31.09-.02.18-.05.27-.07.1.02.2.05.3.07.53.12,1.25.29,2.12.29.78,0,1.45-.13,1.95-.22.1-.02.21-.04.31-.06.04.01.08.03.12.04.57.19,1.42.47,2.47.47.36,0,.73.01,1.09.02.44.01.89.03,1.33.03.99,0,1.82-.25,2.37-.41.06-.02.11-.03.16-.05.09.02.19.04.28.06.41.09.95.2,1.58.24,0,.26-.01.52-.02.79-.02.45-.03.9-.03,1.35,0,.98.25,1.79.41,2.33.02.07.04.14.06.21,0,.23-.03.46-.04.69-.04.49-.07.99-.07,1.48,0,.82.15,1.52.27,2.02.03.14.07.28.08.33,0,.37,0,.74,0,1.1ZM101.85,37.76c.03.15.07.31.08.37-.01.23-.07.56-.13.91-.08.44-.15.88-.19,1.33-.04.44-.04.85,0,1.22-.28.35-.54.77-.72,1.29l-.09.27c-.1.06-.21.12-.28.16l-.13.02c-.51.09-1.09.19-1.46.2-.11-.02-.23-.05-.34-.08-.54-.13-1.31-.33-2.08-.31-.14-.02-.29-.06-.43-.09-.52-.12-1.24-.27-2.08-.27-1.17,0-2.11.38-2.7.63-.04,0-.08-.02-.12-.03-.51-.11-1.22-.26-2.04-.26-.99,0-1.82.25-2.37.41-.08.02-.16.05-.24.07-.3,0-.61-.01-.91-.02-.36-.01-.73-.02-1.09-.03-.07-.02-.13-.04-.2-.07-.57-.19-1.42-.47-2.47-.47-.78,0-1.45.13-1.95.22-.15.03-.3.06-.43.08-.12-.02-.24-.05-.36-.08-.53-.12-1.25-.29-2.11-.29-.89,0-1.63.18-2.17.31-.12.03-.23.06-.35.08-.48,0-.95.04-1.43.08-.72.06-1.44.05-2.16.06-.27,0-.55,0-.82,0-.04-.01-.07-.03-.11-.04-.6-.23-1.51-.58-2.66-.58-.44,0-.89.01-1.33.03-.71.02-1.43.02-2.14,0-.46-.02-.92-.04-1.38-.04-.98,0-1.8.24-2.34.4-.08.02-.17.05-.25.07-.26,0-.52-.03-.78-.04-.45-.03-.9-.06-1.35-.06-.1-.02-.21-.05-.31-.08-.56-.15-1.32-.35-2.25-.35-1.22,0-2.19.42-2.82.74-.01,0-.02,0-.04,0-.48-.1-1.14-.23-1.9-.24-.12-.02-.23-.05-.35-.08-.54-.13-1.28-.32-2.17-.32-.94,0-1.71.23-2.29.44-.65-.29-1.56-.63-2.68-.61-1.04.02-1.91.34-2.5.61-.61-.22-1.47-.47-2.5-.43-.8.03-1.49.2-1.99.32-.16.04-.32.09-.45.1-.86.03-1.58.23-2.1.37-.13.04-.26.08-.39.1-.38.01-.75.03-1.13.05-.4.02-.8.05-1.2.05-.16,0-.46-.04-.75-.07-.38-.05-.83-.1-1.34-.12-.06-.02-.12-.05-.18-.07-.55-.21-1.38-.52-2.42-.56-1.06-.06-1.93.24-2.59.53-.51-.24-1.16-.5-1.95-.61-.48-.06-.82-.14-1.09-.26-.09-.04-.4-.32-.58-.48-.06-.07-.2-.34-.3-.53l-.14-.26c-.21-.37-.44-.69-.68-.96.1-.45.16-.98.11-1.55-.03-.4-.09-.8-.16-1.19-.03-.18-.07-.42-.07-.46.04-.73-.07-1.38-.21-1.89.28-.43.58-.99.77-1.66.07-.27.14-.54.2-.81.22-.1.44-.21.65-.33.17-.09.33-.19.49-.29.07,0,.14.01.22.02.46.04,1.03.08,1.65.06.76-.03,1.39-.16,1.9-.27.16-.03.31-.08.45-.09.12.02.24.05.37.07.53.1,1.25.25,2.1.22.32,0,.64,0,.96.02.48.02.97.03,1.45.02l2.41-.05c.36,0,.72,0,1.07,0,.45,0,.89.01,1.34,0,.75-.02,1.38-.14,1.88-.24.19-.04.45-.09.53-.09.78-.01,1.45-.16,1.94-.26.17-.03.33-.08.47-.09.34,0,.68,0,1.02.02.46.01.93.03,1.39.02.15.02.42.03.69.06.47.06,1.06.12,1.68.12.16.01.31.05.47.08.5.09,1.18.21,2,.21,1.03-.01,1.88-.32,2.47-.57.59.22,1.4.47,2.37.45,1.01,0,1.84-.31,2.47-.62.61.27,1.42.49,2.38.52.98,0,1.8-.26,2.34-.42.08-.03.16-.05.24-.07.23,0,.46.03.69.05.46.04,1,.07,1.58.08.32,0,.63.02.94.04.5.03.98.05,1.46.05.17,0,.35.05.52.08.52.09,1.19.21,1.93.19.83,0,1.53-.17,2.04-.28.12-.03.24-.06.37-.08.36,0,.72,0,1.08-.01.36,0,.71-.01,1.07-.01.04,0,.09,0,.13,0,.98,0,1.79-.24,2.32-.4.06-.02.11-.04.17-.05.14.02.31.04.46.06.42.06.93.14,1.5.16.08.02.15.05.23.07.53.17,1.34.42,2.32.44.29,0,.57.04.86.06.5.05.99.09,1.49.1h1.12c.41.02.82.02,1.23.03,1.3.03,2.29-.44,2.93-.77.08,0,.16.02.24.03.38.04.8.09,1.27.11.05.02.1.04.16.06.56.21,1.42.52,2.48.53,1.14.03,2.09-.33,2.66-.55.07.01.13.03.2.04.48.09,1.14.21,1.89.22.69.02,1.28-.07,1.76-.14.22-.03.5-.07.61-.07.23,0,.54.03.81.06.35.03.73.07,1.15.09.02,0,.04.02.06.03.38.15.89.37,1.53.5.27.06.51.15.82.31.17.09.35.17.52.26,0,0,0,0,0,0l.14.42c.14.39.31.73.48,1.03-.16.48-.3,1.07-.3,1.74,0,.75.12,1.41.21,1.89Z"/>
        <path class="cls-2" d="M62.26,71.51l-.03-2.45c0-.33.01-.67.03-1,.02-.48.04-.96.04-1.45,0-.34.01-.68.03-1.01.02-.48.04-.96.03-1.44-.01-1.02-.28-1.86-.46-2.42-.03-.08-.06-.17-.08-.25-.14-2.1-1.91-3.72-4.03-3.73-2.21.02-3.98,1.83-3.96,4.04.01,1.02.28,1.86.46,2.42.02.07.05.15.07.22,0,.27-.02.54-.03.82-.02.48-.04.96-.03,1.44,0,.33-.01.67-.03,1-.02.48-.04.96-.04,1.45l.03,2.45c0,.77.13,1.42.23,1.94.02.1.04.21.06.31-.01.03-.02.06-.03.09-.2.58-.5,1.47-.49,2.56,0,.33-.01.66-.03.99-.02.49-.04.97-.04,1.46,0,.62.07,1.16.12,1.64.03.27.07.54.07.81,0,.62.07,1.16.12,1.64.03.27.07.54.07.81.02,2.2,1.81,3.96,4,3.96h.04c2.21-.02,3.98-1.83,3.96-4.04,0-.62-.07-1.16-.12-1.64-.03-.27-.07-.54-.07-.81,0-.61-.07-1.15-.12-1.63-.03-.27-.07-.54-.07-.82,0-.33.01-.66.03-.99.02-.39.04-.78.04-1.18.02-.06.04-.12.06-.17.2-.58.5-1.47.49-2.56,0-.77-.13-1.42-.23-1.94-.03-.18-.08-.35-.09-.51Z"/>
        <path class="cls-2" d="M43.55,72.16c.03-.31.07-.67.09-1.08.29-.62.76-1.64.72-2.96-.02-.76-.16-1.42-.27-1.9-.03-.16-.08-.31-.09-.43-.03-.79-.19-1.46-.3-1.95-.03-.14-.08-.29-.09-.38-.03-.76-.18-1.41-.29-1.89-.03-.15-.08-.3-.1-.46-.11-2.2-1.94-3.91-4.17-3.8-2.21.1-3.92,1.96-3.82,4.17.03.74.18,1.39.28,1.86.04.16.08.31.09.43.03.77.19,1.43.3,1.92.03.14.08.29.09.37.02.75.17,1.39.27,1.87,0,0,0,0,0,.01-.29.62-.66,1.56-.63,2.73,0,.14-.02.41-.05.67-.05.45-.1,1.01-.09,1.63.02.96.31,1.77.62,2.38-.25.59-.47,1.33-.46,2.22,0,1.14.38,2.05.65,2.64,0,.03-.01.05-.02.08-.09.47-.21,1.12-.21,1.8-.02.14-.05.28-.08.42-.1.49-.25,1.16-.25,1.95-.02,2.21,1.75,4.05,3.96,4.07.01,0,.02,0,.04,0,2.19,0,3.98-1.74,4-3.93.02-.14.05-.28.08-.42.11-.5.25-1.18.25-1.95.01-.16.05-.31.08-.46.09-.48.22-1.15.21-1.91,0-.89-.23-1.64-.45-2.21.29-.62.58-1.46.57-2.48-.02-1.31-.54-2.32-.93-2.96,0-.01,0-.02,0-.04Z"/>
        <path class="cls-2" d="M82.37,73.42c0-.69-.08-1.29-.15-1.76-.03-.2-.07-.47-.07-.56,0-.96-.22-1.76-.36-2.29,0-.02-.01-.04-.02-.07,0-.03.02-.06.02-.09.15-.51.36-1.29.37-2.21,0-.67-.07-1.26-.13-1.73-.03-.21-.07-.49-.06-.6,0-.43,0-.86-.01-1.29,0-.34-.02-.69-.01-1.04.02-2.21-1.75-4.02-3.96-4.04h-.04c-2.19,0-3.98,1.76-4,3.96,0,.43,0,.86.01,1.29,0,.34.02.69.01,1.03,0,.67.07,1.26.13,1.73.02.15.05.35.06.48-.02.08-.04.15-.06.23-.15.51-.36,1.29-.37,2.21,0,.96.22,1.76.36,2.29.02.08.05.16.07.23,0,.61.08,1.14.15,1.57.03.2.07.47.07.53-.01.15-.05.31-.08.46-.1.48-.23,1.14-.23,1.9,0,.66.07,1.24.12,1.7.03.24.06.51.06.62,0,.1-.04.39-.08.59-.07.47-.16,1.06-.17,1.73,0,.44,0,.87.02,1.31,0,.34.02.68.02,1.02,0,.4,0,.8,0,1.19,0,.38,0,.75,0,1.13-.02,2.21,1.75,4.02,3.96,4.04h.04c2.19,0,3.98-1.76,4-3.96,0-.41,0-.82,0-1.23,0-.37,0-.73,0-1.1,0-.44,0-.87-.02-1.31,0-.34-.02-.68-.02-1.02,0-.1.04-.39.08-.59.07-.47.16-1.05.17-1.73,0-.66-.07-1.24-.12-1.7-.03-.24-.06-.51-.06-.59.01-.15.05-.31.08-.46.1-.48.23-1.14.23-1.9Z"/>
      </g>
    </g>
  </g>
</svg>